# xmcd
# 
# Track frame offsets:
#     150
#     14984
#     28526
#     45255
#     68622
#     81402
#     101830
#     117800
#     134986
#     140435
#     151327
#     167473
#     174548
#     189785
# 
# Disc length: 2755
# 
# Revision: 4
# Processed by: cddbd v1.5.2PL0 Copyright (c) Steve Scherf et al.
# Submitted via: fre:ac v1.0.31
# 
DISCID=b90ac10e
DTITLE=David Lee Roth - Diamond Dave
DYEAR=2003
DGENRE=Rock/Pop
TTITLE0=You Got The Blues, Not Me...
TTITLE1=Made Up My Mind
TTITLE2=Stay While The Night Is Still Young
TTITLE3=Shoo Bop
TTITLE4=She's Looking Good
TTITLE5=Soul Kitchen
TTITLE6=If 6 Was 9
TTITLE7=Tomorrow Never Knows
TTITLE8=Medicine Man
TTITLE9=Let It All Hang Out
TTITLE10=Thug Pop
TTITLE11=Act One
TTITLE12=Ice Cream Man
TTITLE13=Bad Habits
EXTD=YEAR: 2003
EXTT0=
EXTT1=
EXTT2=
EXTT3=
EXTT4=
EXTT5=
EXTT6=
EXTT7=
EXTT8=
EXTT9=
EXTT10=
EXTT11=
EXTT12=
EXTT13=
PLAYORDER=
